<svg width="36" height="34" viewBox="0 0 36 34" fill="none" xmlns="http://www.w3.org/2000/svg">
<path fill-rule="evenodd" clip-rule="evenodd" d="M14.3429 8.32229e-05C15.19 -0.00367742 16.4898 0.120728 17.2312 0.274907C17.9725 0.430994 19.1863 0.85009 19.9276 1.2074C20.669 1.56288 21.7953 2.30987 22.4307 2.86269C23.066 3.41746 23.8978 4.32909 24.281 4.8913C24.6621 5.45156 25.1986 6.45953 25.472 7.13278C25.7455 7.80603 26.0837 9.13419 26.4746 11.8159L27.7253 12.213C28.4126 12.4312 29.5409 12.9333 30.2283 13.3282C30.9157 13.725 32.0251 14.5875 32.6895 15.2456C33.4307 15.9771 34.1907 16.9893 34.6509 17.8525C35.0648 18.6289 35.5364 19.8133 35.7002 20.4847C35.8638 21.1559 35.9999 22.2992 36 23.0233C36 23.7473 35.8639 24.892 35.7002 25.5634C35.5364 26.2349 35.0891 27.3782 34.7041 28.102C34.269 28.9162 33.5209 29.8842 32.741 30.6421C31.8881 31.4694 31.0126 32.0926 30.0365 32.5627C29.2413 32.9444 28.0275 33.3997 27.3401 33.5746C26.308 33.834 24.7917 33.9053 18.6753 33.9749C13.6569 34.0313 11.0307 33.9933 10.5408 33.8542C10.0633 33.7188 9.68965 33.442 9.43356 33.0377C9.22374 32.7011 9.05027 32.2366 9.04835 32.0035C9.04846 31.7702 9.16511 31.3469 9.30945 31.0631C9.45207 30.7791 9.99557 30.2995 10.5134 29.9987C11.0313 29.6997 12.2344 28.8863 13.1873 28.1925C14.1404 27.4986 15.6025 26.2191 16.4382 25.3521C17.2718 24.4853 18.4384 23.0583 19.0315 22.1782C19.6246 21.2981 20.4002 19.9015 20.7545 19.0741C21.1087 18.2466 21.5606 16.8927 21.757 16.0653C21.9533 15.2378 22.168 13.8838 22.2373 13.0566C22.3046 12.2292 22.2699 11.0038 22.1583 10.3306C22.0466 9.65737 21.7027 8.60009 21.3927 7.97949C21.0288 7.24795 20.435 6.4996 19.7052 5.8508C19.0179 5.2397 18.1666 4.69931 17.5197 4.46239C16.9361 4.24997 15.8544 4.03368 15.1134 3.98105C14.3241 3.92467 13.327 3.98466 12.707 4.12561C12.1236 4.25912 11.3013 4.51596 10.8777 4.69273C10.4541 4.87139 9.63178 5.36802 9.04835 5.79679C8.46494 6.22747 7.66008 6.97937 7.2577 7.46638C6.85527 7.95535 6.23814 8.90438 5.88771 9.5776C5.53727 10.2508 5.11106 11.2241 4.94162 11.7412C4.77024 12.2586 4.49569 13.4429 4.33399 14.3735C4.16073 15.3626 4.04525 17.083 4.05677 18.5101C4.0664 19.8548 4.13219 21.3715 4.20344 21.8811C4.27269 22.3899 4.43818 22.8327 4.57091 22.8676C4.70377 22.9015 5.30307 22.1884 5.90383 21.2838C6.56239 20.2928 7.806 18.8471 9.03223 17.6476C10.1529 16.5512 11.6325 15.2868 12.3218 14.8374C13.0111 14.3861 14.2216 13.7042 15.0166 13.3187C15.81 12.9332 17.0685 12.442 17.8098 12.2257C18.5511 12.0114 19.5914 11.7559 21.0833 11.4871L20.9592 13.2138C20.8918 14.1614 20.7858 15.0642 20.7222 15.2202C20.6595 15.3764 20.0655 15.6577 19.4022 15.8493C18.7379 16.0411 17.632 16.4689 16.9427 16.7961C16.2536 17.1251 15.1718 17.7259 14.5363 18.1321C13.9009 18.5402 12.6424 19.6055 11.7432 20.5006C10.844 21.3958 9.65437 22.838 9.09992 23.7048C8.54539 24.5717 7.78176 26.1272 7.40437 27.1615C6.91336 28.5005 6.66173 29.5843 6.5308 30.9233C6.36533 32.6313 6.29839 32.8517 5.79262 33.3458C5.3422 33.782 5.07219 33.8857 4.39685 33.8764C3.74221 33.867 3.44533 33.7487 3.03331 33.3331C2.64628 32.9457 2.34965 32.2481 1.92604 30.7342C1.60841 29.5967 1.17827 27.9051 0.970272 26.9741C0.762318 26.0432 0.46023 24.2858 0.296562 23.0709C0.132933 21.8563 -0.00187785 19.7412 5.065e-07 18.3704C5.065e-07 16.9994 0.12542 15.0724 0.275609 14.0907C0.427729 13.1093 0.783715 11.5852 1.06859 10.7071C1.35164 9.82884 1.84526 8.60008 2.16297 7.97949C2.48069 7.35889 3.10789 6.34267 3.56035 5.72213C4.01098 5.10153 4.84756 4.16438 5.41547 3.63792C5.98342 3.11143 6.92408 2.38115 7.50752 2.01439C8.09079 1.64966 8.91314 1.20635 9.33685 1.02948C9.7604 0.852732 10.7134 0.551215 11.4547 0.357512C12.2132 0.160078 13.4745 0.00388486 14.3429 8.32229e-05ZM26.2876 15.9716C26.1162 15.9716 25.9231 16.2856 25.796 16.7707C25.6805 17.2106 25.3771 18.2056 25.1191 18.9804C24.8611 19.7569 24.2536 21.152 23.7684 22.0828C23.2813 23.0137 22.3916 24.4412 21.7908 25.2536C21.1901 26.0679 20.0689 27.4002 19.3007 28.2163C18.0635 29.5317 17.9418 29.7266 18.2224 29.9352C18.465 30.1157 19.3574 30.1387 22.0261 30.0353C23.942 29.9619 25.9023 29.8068 26.3779 29.6921C26.8554 29.5774 27.7102 29.2571 28.2781 28.9788C28.8479 28.7024 29.6661 28.0961 30.0994 27.6317C30.5306 27.1673 31.1047 26.3207 31.3743 25.7509C31.7863 24.8839 32.0366 24.2147 32.0366 23.0233C32.0366 21.7747 31.803 21.2055 31.2389 20.0622C30.8942 19.3645 30.2022 18.3897 29.6997 17.897C29.1971 17.4042 28.2854 16.7684 27.6769 16.4863C27.0692 16.2027 26.4442 15.972 26.2876 15.9716Z" fill="#D5213E"/>
</svg>
